<svg width="25" height="24" viewBox="0 0 25 24" fill="none" xmlns="http://www.w3.org/2000/svg">
<g clip-path="url(#clip0_323_2268)">
<path d="M7.51178 14.8235C8.4864 14.8235 9.27648 14.0334 9.27648 13.0588C9.27648 12.0842 8.4864 11.2941 7.51178 11.2941C6.53716 11.2941 5.74707 12.0842 5.74707 13.0588C5.74707 14.0334 6.53716 14.8235 7.51178 14.8235Z" fill="#80BE47"/>
<path d="M17.3941 14.8235C18.3687 14.8235 19.1588 14.0334 19.1588 13.0588C19.1588 12.0842 18.3687 11.2941 17.3941 11.2941C16.4195 11.2941 15.6294 12.0842 15.6294 13.0588C15.6294 14.0334 16.4195 14.8235 17.3941 14.8235Z" fill="#80BE47"/>
<path d="M24.1247 4.23529L20.5952 0H17.7351L19.8528 4.23529H24.1247Z" fill="#80BE47"/>
<path d="M18.2745 4.23529L16.1569 0H14.6372L15.3431 4.23529H18.2745Z" fill="#80BE47"/>
<path d="M7.26475 0H4.40466L0.875244 4.23529H5.1471L7.26475 0Z" fill="#80BE47"/>
<path d="M9.65702 4.23529L10.3629 0H8.84323L6.72559 4.23529H9.65702Z" fill="#80BE47"/>
<path d="M13.2058 0H11.794L11.0881 4.23529H13.9117L13.2058 0Z" fill="#80BE47"/>
<path d="M23.0412 9.38187C23.8066 8.89669 24.3585 8.09787 24.4929 7.15886L24.5 7.10912V5.64709H0.5V7.10912L0.507106 7.15886C0.635953 8.05891 1.14833 8.83011 1.86471 9.31985V22.5883H0.5V24H4.68824V19.7177H20.2176V24H24.5V22.5883H23.0412C23.0412 22.0651 23.0412 9.91524 23.0412 9.38187ZM20.2176 17.6471V16.8942C20.2176 16.2819 20.0211 15.715 19.6888 15.2519C18.4364 16.5617 16.3546 16.5646 15.0995 15.2519C14.7671 15.715 14.5706 16.2819 14.5706 16.8942V17.6471H10.3353V16.8942C10.3353 16.2819 10.1388 15.715 9.8064 15.2519C9.22767 15.8572 8.41332 16.2353 7.51177 16.2353C6.61021 16.2353 5.79586 15.8572 5.21713 15.2519C4.88475 15.715 4.68824 16.2819 4.68824 16.8942V17.6471H3.27647V9.85669C4.33713 9.99025 5.36762 9.58667 6.06066 8.82182C7.16165 10.1955 9.22188 10.2401 10.3824 8.92455C11.5075 10.2 13.4896 10.2034 14.6176 8.92455C15.7776 10.2395 17.8379 10.1961 18.9393 8.82182C19.6027 9.55387 20.5893 9.96728 21.6294 9.86757V17.6471H20.2176Z" fill="#80BE47"/>
<path d="M6.1001 21.1294H18.806V24H6.1001V21.1294Z" fill="#80BE47"/>
</g>
<defs>
<clipPath id="clip0_323_2268">
<rect width="24" height="24" fill="white" transform="translate(0.5)"/>
</clipPath>
</defs>
</svg>
