<svg width="32" height="32" viewBox="0 0 32 32" fill="none" xmlns="http://www.w3.org/2000/svg">
<path d="M27.3494 8.8603L24.7781 15.1442L16.6842 2.71451L27.3468 8.8603H27.3494ZM25.2846 16.0013L27.8404 22.2721V9.71482L25.2846 15.9987V16.0013ZM16.6842 29.2855L27.3339 23.1527L24.7781 16.8532L16.6842 29.2855ZM4.54612 23.1397L15.1957 29.2725L7.11484 16.8558L4.54612 23.1397ZM4.03961 22.2721L6.59541 16.0013L4.03961 9.73045V22.2721ZM7.49731 16.0013L15.9322 28.9833L24.3801 16.0013L15.9322 3.00369L7.49731 16.0013ZM4.54612 8.8603L7.10192 15.1442L15.1957 2.71451L4.54612 8.8603Z" fill="#FF0000"/>
<path d="M11.6941 15.3526C11.7613 15.4203 11.8854 15.5324 11.9397 15.574C11.9267 15.6287 11.9267 15.7121 11.9397 15.8085C11.2548 16.5797 10.6269 16.7308 10.3271 16.7308C10.9551 16.2905 11.5029 15.5871 11.6941 15.3526ZM12.6115 18.0412C12.4875 18.0412 12.1205 18.2757 12.1748 18.4138C12.2291 18.5518 12.3531 18.5935 12.3118 18.8697C12.2834 18.9947 12.2162 19.2292 11.9965 19.1328C11.7226 19.0364 11.7639 18.3069 11.8182 17.9891C11.9009 17.4785 11.9681 16.7751 11.8725 16.1003C11.4771 16.4859 11.1075 16.7073 10.8207 16.8037H10.8078C10.862 17.231 10.862 17.6713 10.8905 17.9188C10.9576 18.2627 10.8905 19.6695 11.9164 19.7659C12.3118 19.7945 12.6813 19.6018 12.8183 19.1042C12.9553 18.7056 12.901 18.0438 12.6141 18.0438M15.4542 17.7103C15.387 17.8615 15.2759 18.0959 15.2759 18.0959C15.2759 18.0959 15.4258 18.247 15.6584 18.3591C15.6584 18.3591 15.617 17.3534 15.6299 17.2284C15.6299 17.2284 15.493 17.614 15.4516 17.7103M20.8966 18.729C20.8139 18.9088 20.7725 19.2396 20.7725 19.349C20.7441 19.6669 20.7725 19.9404 20.8397 20.1489C20.9354 20.425 20.894 20.5891 20.894 20.5891C21.0568 20.4928 20.9767 20.2583 20.9483 19.9821C20.9354 19.706 20.9896 19.0989 21.0982 18.8098C21.2067 18.5206 21.1524 18.3148 21.1524 18.3148C21.0982 18.4945 20.9741 18.5362 20.8914 18.729M15.4542 20.4928C15.3715 20.5058 15.3302 20.6569 15.3043 20.7819C15.4542 20.7689 15.5782 20.7403 15.6609 20.7142C15.6196 20.6308 15.5369 20.4797 15.4568 20.4928M15.3172 20.0108C15.1389 19.9014 14.7022 19.4324 14.25 19.2396C14.25 19.2396 14.3042 19.831 14.2629 20.0525C14.2086 20.3547 14.1673 20.5475 14.2215 20.6439C14.2758 20.5475 14.3714 20.4094 14.4955 20.4094C14.5497 20.3964 14.604 20.4224 14.6453 20.4771C14.6867 20.5188 14.7125 20.5735 14.741 20.6282C14.7823 20.5318 14.8779 20.4224 14.9865 20.4068C15.1105 20.3938 15.1906 20.5032 15.232 20.6126C15.2733 20.5032 15.3405 20.3912 15.4361 20.3781C15.5989 20.3495 15.71 20.5292 15.7643 20.6413C15.8315 20.5032 15.723 20.2687 15.723 20.0082C15.71 20.0082 15.462 20.1176 15.3121 20.0082M14.4851 20.5344C14.4308 20.5344 14.3482 20.6439 14.3068 20.7403C14.3482 20.7689 14.4024 20.7819 14.4696 20.7819C14.5239 20.7819 14.5781 20.7819 14.6324 20.795C14.6324 20.6986 14.5911 20.6152 14.5497 20.5605L14.4825 20.5318L14.4851 20.5344ZM14.989 20.5344C14.8805 20.5475 14.8262 20.6855 14.7978 20.7976C14.9063 20.8106 15.0433 20.8106 15.1674 20.7976C15.126 20.6881 15.0588 20.5344 14.989 20.5344ZM15.9323 18.8671C15.9039 18.9088 15.9995 19.0468 16.1364 19.1563C16.1907 19.0052 16.2036 18.8931 16.1649 18.8254C16.0822 18.8124 15.9607 18.8124 15.9323 18.8671ZM15.7411 19.2396C15.6997 19.3074 15.7953 19.4454 15.8909 19.5418C15.9323 19.4871 15.9581 19.4324 16.015 19.3621C16.0434 19.3204 16.0563 19.2943 16.0822 19.2657C15.9452 19.211 15.7824 19.1693 15.7411 19.237M15.5498 19.5835L15.4955 19.6122C15.4826 19.6539 15.524 19.7503 15.5782 19.8467C15.6454 19.8336 15.7281 19.7503 15.8237 19.6539C15.7281 19.5992 15.6196 19.5705 15.5498 19.5861M20.4443 20.5058C20.3772 20.5188 20.3074 20.6569 20.2815 20.7819C20.4185 20.7689 20.5426 20.7533 20.6382 20.6986C20.5968 20.6022 20.5296 20.4928 20.4469 20.5058M21.7571 16.9366C21.7571 16.9366 21.907 17.2258 21.907 17.5697C21.907 17.8875 21.8114 18.2444 21.8114 18.2444C21.8114 18.2444 21.4832 17.9422 21.5375 17.0173C21.5375 17.0173 21.5917 15.6939 21.3462 15.1285C21.3462 15.1285 21.0852 16.327 20.9896 16.6865C20.894 17.059 20.9896 17.6791 21.031 17.8719C21.0982 18.1611 20.8811 18.2991 20.7312 18.6587C20.6072 18.9609 20.5942 19.2917 20.5813 19.4715C20.5684 19.706 20.5942 20.0082 20.7054 20.326C20.7467 20.4511 20.7467 20.5735 20.7054 20.6152C20.6511 20.5188 20.5555 20.3677 20.4056 20.3807C20.297 20.3938 20.2273 20.5058 20.1859 20.6022C20.1446 20.5058 20.0774 20.3964 19.9533 20.3964C19.8448 20.3964 19.7492 20.4928 19.6923 20.5891C19.6639 20.5344 19.6381 20.4797 19.6096 20.438C19.5554 20.3833 19.514 20.3547 19.4598 20.3547C19.3357 20.3547 19.2272 20.5188 19.1729 20.6022C19.1316 20.5475 19.1186 20.4641 19.1445 20.3547C19.253 19.818 19.4598 18.9218 19.253 18.4659C19.0334 18.0099 18.1857 17.2258 18.1185 16.3009C18.1185 16.3009 17.9687 16.4103 18.1185 16.8662C18.1185 16.8662 17.0926 16.9913 15.8367 16.6031C15.8367 16.6031 15.8651 16.4103 15.9995 16.1081C15.9995 16.1081 15.6997 16.3426 15.5343 16.9913C15.48 17.2258 15.1648 17.8458 15.0976 18.0256C15.0149 18.2053 15.493 18.4659 15.6584 18.5362C15.7824 18.5909 15.9452 18.6196 16.0692 18.7003C15.9736 18.7003 15.878 18.729 15.8367 18.8098L15.8237 18.8775C15.8237 18.9609 15.878 19.0156 15.9194 19.0989C15.8237 19.0859 15.6997 19.0859 15.6454 19.1823C15.6325 19.211 15.617 19.237 15.617 19.2787C15.617 19.3464 15.6454 19.4168 15.6842 19.4845C15.617 19.4715 15.5602 19.4715 15.5214 19.4845C15.4542 19.4975 15.4129 19.5262 15.3973 19.5679C15.3431 19.6513 15.3973 19.7737 15.4516 19.8701C15.356 19.8414 15.2604 19.745 15.1363 19.6643C14.8211 19.3881 14.0975 18.9348 13.9734 18.8775C13.8365 18.8228 13.5496 18.643 13.6039 18.0516C13.6582 17.4733 13.8236 15.9023 13.9192 15.5011C13.9192 15.5011 13.8106 15.5845 13.7279 15.8606L13.3041 15.2119C13.4669 15.1025 13.6039 14.881 13.6866 14.756C13.7822 14.881 13.9605 15.1702 13.9605 15.1702L14.0277 15.0738C14.0406 15.0608 14.2603 14.8107 14.3275 14.6049C14.4102 14.3834 14.4644 14.1229 14.5058 13.8884C14.5342 13.7504 14.5601 13.6409 14.5885 13.5706L14.6557 13.3908C14.8185 13.0183 15.188 12.2758 14.6841 11.7495C14.1776 11.2259 13.5083 11.4864 13.5083 11.4864C13.5083 11.4864 14.2474 11.4994 14.5471 11.8589C14.697 12.0387 14.7384 12.2445 14.7384 12.4373C14.7384 12.7682 14.5885 13.086 14.4929 13.3205L14.4102 13.5263C14.3817 13.594 14.3559 13.7191 14.343 13.8572C14.3016 14.0786 14.2474 14.3391 14.1647 14.5476C14.1233 14.657 14.0277 14.7951 13.9605 14.8784C13.8778 14.769 13.6452 14.4225 13.6452 14.4225L13.591 14.5606C13.5367 14.6856 13.3455 15.0165 13.1542 15.0973C12.9346 15.2354 12.7589 15.277 12.6064 15.3865C12.5108 15.4698 12.4151 15.5376 12.3738 15.8007C12.3195 16.0221 12.1412 16.1029 12.1412 16.1029C12.1412 16.1029 12.1412 16.0065 12.1128 15.8815C12.0456 15.6887 12.0999 15.4959 12.0999 15.4959L11.6631 15.1364L11.6089 15.2041C11.6089 15.2171 11.2264 15.7408 10.7199 16.2097L10.707 16.2227C10.6941 16.155 10.6941 16.1133 10.6785 16.03C10.6785 16.03 10.5157 16.2514 9.9808 16.2644C10.5959 15.8241 10.6243 15.6027 10.6243 15.6027C10.57 14.9696 10.6243 14.2792 10.6243 14.2792C10.5959 14.0448 10.5571 13.37 10.6243 13.1069C10.6785 12.8307 10.7483 12.6119 10.9396 12.0465C11.1437 11.4942 11.583 11.5229 11.583 11.5229C11.583 11.5229 11.9784 10.9315 12.4436 10.8898C13.1827 10.8064 13.7279 11.0279 14.1518 10.9575C14.5756 10.8742 15.6429 10.6136 16.2424 10.6814C16.8445 10.7361 18.8938 11.1633 19.62 11.7704C20.3591 12.3774 21.478 13.2319 21.6305 14.8446C21.7933 16.4025 21.7546 16.9262 21.7546 16.9262M12.5831 13.1616C12.6245 13.0652 12.8286 12.8594 12.8286 12.8594C12.8286 12.8594 12.6245 12.763 12.4462 12.9271C12.2678 13.1069 12.379 13.4508 12.379 13.4508C12.379 13.4508 12.5418 13.271 12.5831 13.1616ZM14.4851 12.1012C14.2525 11.674 13.7745 11.8251 13.7745 11.8251C14.0484 11.8928 14.3068 12.0596 14.3482 12.2237C14.4308 12.4582 14.3611 12.9271 14.3611 12.9271C14.3611 12.9271 14.7022 12.5285 14.4851 12.1012ZM19.9792 20.5214C19.8706 20.5214 19.8009 20.6725 19.7595 20.7976H20.142C20.1136 20.6725 20.0593 20.5214 19.9792 20.5214ZM19.4882 20.4928C19.4339 20.4928 19.3383 20.6022 19.284 20.6855C19.3796 20.7403 19.5037 20.7689 19.6251 20.7819C19.6251 20.6725 19.5967 20.5761 19.5425 20.5188L19.4882 20.4902V20.4928Z" fill="white"/>
</svg>
