<svg width="99" height="32" viewBox="0 0 99 32" fill="none" xmlns="http://www.w3.org/2000/svg">
<g clip-path="url(#clip0_403_2070)">
<path d="M28.0724 7.40151L24.9758 14.9693L15.2282 0L28.0693 7.40151H28.0724ZM25.5858 16.0016L28.6638 23.5537V8.43063L25.5858 15.9984V16.0016ZM15.2282 32L28.0538 24.6142L24.9758 17.0276L15.2282 32ZM0.61 24.5985L13.4356 31.9843L3.70357 17.0307L0.61 24.5985ZM0 23.5537L3.07801 16.0016L0 8.44946V23.5537ZM4.16418 16.0016L14.3225 31.636L24.4965 16.0016L14.3225 0.348269L4.16418 16.0016ZM0.61 7.40151L3.68801 14.9693L13.4356 0L0.61 7.40151Z" fill="#FF0000"/>
<path d="M9.21853 15.2203C9.29945 15.3019 9.44884 15.4368 9.51419 15.487C9.49863 15.5529 9.49863 15.6533 9.51419 15.7694C8.68945 16.6981 7.93317 16.8801 7.57215 16.8801C8.32843 16.3499 8.98822 15.5027 9.21853 15.2203ZM10.3234 18.4583C10.174 18.4583 9.73205 18.7407 9.79741 18.907C9.86276 19.0733 10.0122 19.1235 9.96236 19.456C9.92812 19.6066 9.8472 19.889 9.58266 19.7729C9.25277 19.6568 9.30256 18.7783 9.36792 18.3956C9.46751 17.7806 9.54843 16.9334 9.43328 16.1208C8.9571 16.5852 8.51205 16.8519 8.16659 16.968H8.15103C8.21639 17.4825 8.21639 18.0128 8.25062 18.3108C8.33154 18.725 8.25062 20.4193 9.48618 20.5354C9.96236 20.5699 10.4074 20.3377 10.5724 19.7384C10.7373 19.2584 10.6719 18.4614 10.3265 18.4614M13.7468 18.0598C13.6659 18.2418 13.5321 18.5242 13.5321 18.5242C13.5321 18.5242 13.7126 18.7062 13.9927 18.8411C13.9927 18.8411 13.9429 17.63 13.9585 17.4794C13.9585 17.4794 13.7935 17.9437 13.7437 18.0598M20.3012 19.2866C20.2016 19.5031 20.1518 19.9016 20.1518 20.0334C20.1176 20.4161 20.1518 20.7456 20.2328 20.9966C20.3479 21.3292 20.2981 21.5268 20.2981 21.5268C20.4942 21.4107 20.3977 21.1284 20.3635 20.7958C20.3479 20.4632 20.4133 19.7322 20.544 19.3839C20.6747 19.0356 20.6093 18.7877 20.6093 18.7877C20.544 19.0042 20.3946 19.0544 20.295 19.2866M13.7468 21.4107C13.6473 21.4264 13.5975 21.6084 13.5663 21.759C13.7468 21.7433 13.8962 21.7088 13.9958 21.6774C13.946 21.577 13.8464 21.3951 13.75 21.4107M13.5819 20.8303C13.3672 20.6985 12.8412 20.1338 12.2965 19.9016C12.2965 19.9016 12.3619 20.6138 12.3121 20.8805C12.2467 21.2445 12.1969 21.4766 12.2623 21.5927C12.3277 21.4766 12.4428 21.3103 12.5922 21.3103C12.6576 21.2947 12.7229 21.326 12.7727 21.3919C12.8225 21.4421 12.8536 21.508 12.8879 21.5739C12.9377 21.4578 13.0528 21.326 13.1835 21.3072C13.3329 21.2915 13.4294 21.4233 13.4792 21.5551C13.529 21.4233 13.6099 21.2884 13.7251 21.2727C13.9211 21.2382 14.055 21.4547 14.1203 21.5896C14.2012 21.4233 14.0705 21.1409 14.0705 20.8272C14.055 20.8272 13.7562 20.9589 13.5757 20.8272M12.5798 21.4609C12.5144 21.4609 12.4148 21.5927 12.365 21.7088C12.4148 21.7433 12.4802 21.759 12.5611 21.759C12.6264 21.759 12.6918 21.759 12.7572 21.7747C12.7572 21.6586 12.7074 21.5582 12.6576 21.4923L12.5766 21.4578L12.5798 21.4609ZM13.1866 21.4609C13.0559 21.4766 12.9906 21.6429 12.9563 21.7778C13.087 21.7935 13.252 21.7935 13.4014 21.7778C13.3516 21.6461 13.2707 21.4609 13.1866 21.4609ZM14.3226 19.4529C14.2884 19.5031 14.4035 19.6694 14.5685 19.8012C14.6338 19.6192 14.6494 19.4843 14.6027 19.4027C14.5031 19.387 14.3568 19.387 14.3226 19.4529ZM14.0923 19.9016C14.0425 19.9832 14.1577 20.1494 14.2728 20.2655C14.3226 20.1996 14.3537 20.1338 14.4222 20.049C14.4564 19.9988 14.472 19.9675 14.5031 19.933C14.3382 19.8671 14.1421 19.8169 14.0923 19.8984M13.862 20.3157L13.7966 20.3503C13.7811 20.4005 13.8309 20.5165 13.8962 20.6326C13.9772 20.6169 14.0767 20.5165 14.1919 20.4005C14.0767 20.3346 13.946 20.3001 13.862 20.3189M19.7566 21.4264C19.6757 21.4421 19.5916 21.6084 19.5605 21.759C19.7255 21.7433 19.8749 21.7245 19.99 21.6586C19.9402 21.5425 19.8593 21.4107 19.7597 21.4264M21.3376 17.128C21.3376 17.128 21.5181 17.4762 21.5181 17.8904C21.5181 18.2732 21.403 18.703 21.403 18.703C21.403 18.703 21.0077 18.3391 21.0731 17.2252C21.0731 17.2252 21.1384 15.6314 20.8428 14.9505C20.8428 14.9505 20.5284 16.3938 20.4133 16.8268C20.2981 17.2754 20.4133 18.0222 20.4631 18.2544C20.544 18.6026 20.2826 18.7689 20.102 19.2019C19.9527 19.5659 19.9371 19.9643 19.9215 20.1808C19.906 20.4632 19.9371 20.8272 20.0709 21.2099C20.1207 21.3605 20.1207 21.508 20.0709 21.5582C20.0056 21.4421 19.8904 21.2601 19.7099 21.2758C19.5792 21.2915 19.4952 21.4264 19.4454 21.5425C19.3956 21.4264 19.3146 21.2947 19.1653 21.2947C19.0345 21.2947 18.9194 21.4107 18.8509 21.5268C18.8167 21.4609 18.7856 21.3951 18.7513 21.3449C18.686 21.279 18.6362 21.2445 18.5708 21.2445C18.4214 21.2445 18.2907 21.4421 18.2254 21.5425C18.1756 21.4766 18.16 21.3762 18.1911 21.2445C18.3218 20.5981 18.5708 19.5188 18.3218 18.9697C18.0573 18.4207 17.0365 17.4762 16.9556 16.3624C16.9556 16.3624 16.7751 16.4942 16.9556 17.0433C16.9556 17.0433 15.72 17.1939 14.2075 16.7264C14.2075 16.7264 14.2417 16.4942 14.4035 16.1302C14.4035 16.1302 14.0425 16.4126 13.8433 17.1939C13.778 17.4762 13.3983 18.223 13.3174 18.4395C13.2178 18.656 13.7935 18.9697 13.9927 19.0544C14.1421 19.1203 14.3382 19.1548 14.4876 19.2521C14.3724 19.2521 14.2573 19.2866 14.2075 19.3839L14.1919 19.4655C14.1919 19.5659 14.2573 19.6317 14.307 19.7322C14.1919 19.7165 14.0425 19.7165 13.9772 19.8326C13.9616 19.8671 13.9429 19.8984 13.9429 19.9486C13.9429 20.0302 13.9772 20.1149 14.0238 20.1965C13.9429 20.1808 13.8744 20.1808 13.8278 20.1965C13.7468 20.2122 13.697 20.2467 13.6784 20.2969C13.613 20.3973 13.6784 20.5448 13.7437 20.6609C13.6286 20.6264 13.5134 20.5103 13.364 20.413C12.9843 20.0804 12.1129 19.5345 11.9635 19.4655C11.7986 19.3996 11.4531 19.1831 11.5185 18.4709C11.5838 17.7743 11.783 15.8824 11.8982 15.3992C11.8982 15.3992 11.7675 15.4996 11.6679 15.8322L11.1575 15.0509C11.3535 14.9191 11.5185 14.6524 11.6181 14.5018C11.7332 14.6524 11.948 15.0007 11.948 15.0007L12.0289 14.8846C12.0444 14.8689 12.309 14.5677 12.3899 14.3199C12.4895 14.0532 12.5549 13.7394 12.6047 13.457C12.6389 13.2907 12.67 13.159 12.7042 13.0742L12.7852 12.8578C12.9812 12.4091 13.4263 11.5149 12.8194 10.8811C12.2094 10.2504 11.4033 10.5642 11.4033 10.5642C11.4033 10.5642 12.2934 10.5799 12.6544 11.0129C12.835 11.2294 12.8848 11.4772 12.8848 11.7094C12.8848 12.1079 12.7042 12.4907 12.5891 12.773L12.4895 13.0209C12.4553 13.1025 12.4241 13.2531 12.4086 13.4194C12.3588 13.6861 12.2934 13.9998 12.1938 14.2508C12.144 14.3826 12.0289 14.5489 11.948 14.6493C11.8484 14.5175 11.5683 14.1002 11.5683 14.1002L11.5029 14.2665C11.4376 14.4171 11.2073 14.8156 10.9769 14.9129C10.7124 15.0791 10.5008 15.1293 10.3172 15.2611C10.202 15.3615 10.0868 15.4431 10.0371 15.76C9.97169 16.0267 9.75695 16.124 9.75695 16.124C9.75695 16.124 9.75695 16.0079 9.72271 15.8573C9.6418 15.6251 9.70715 15.3929 9.70715 15.3929L9.18118 14.9599L9.11583 15.0415C9.11583 15.0572 8.65521 15.6878 8.04522 16.2526L8.02965 16.2683C8.01409 16.1867 8.01409 16.1365 7.99542 16.0361C7.99542 16.0361 7.79935 16.3028 7.15511 16.3185C7.89583 15.7882 7.93006 15.5215 7.93006 15.5215C7.8647 14.7591 7.93006 13.9277 7.93006 13.9277C7.89583 13.6453 7.84914 12.8327 7.93006 12.5158C7.99542 12.1832 8.07945 11.9196 8.30976 11.2388C8.55562 10.5736 9.0847 10.6081 9.0847 10.6081C9.0847 10.6081 9.56088 9.89589 10.1211 9.84569C11.0112 9.74529 11.6679 10.012 12.1783 9.92727C12.6887 9.82687 13.974 9.51311 14.6961 9.59469C15.4212 9.66058 17.8892 10.1751 18.7638 10.9062C19.6539 11.6372 21.0015 12.6664 21.1851 14.6085C21.3812 16.4848 21.3345 17.1154 21.3345 17.1154M10.2891 12.5816C10.3389 12.4656 10.5848 12.2177 10.5848 12.2177C10.5848 12.2177 10.3389 12.1016 10.1242 12.2993C9.90945 12.5158 10.0433 12.9299 10.0433 12.9299C10.0433 12.9299 10.2393 12.7134 10.2891 12.5816ZM12.5798 11.3047C12.2997 10.7901 11.7239 10.9721 11.7239 10.9721C12.0538 11.0537 12.365 11.2545 12.4148 11.4521C12.5144 11.7345 12.4304 12.2993 12.4304 12.2993C12.4304 12.2993 12.8412 11.8192 12.5798 11.3047ZM19.1964 21.4453C19.0657 21.4453 18.9816 21.6272 18.9318 21.7778H19.3925C19.3582 21.6272 19.2929 21.4453 19.1964 21.4453ZM18.6051 21.4107C18.5397 21.4107 18.4245 21.5425 18.3592 21.6429C18.4743 21.7088 18.6237 21.7433 18.77 21.759C18.77 21.6272 18.7358 21.5111 18.6704 21.4421L18.6051 21.4076V21.4107Z" fill="white"/>
<path d="M98.7826 16.149V25.5272L98.5866 25.6088C96.1154 26.6881 92.7418 27.3344 89.614 27.3344C81.8271 27.3344 76.5923 23.0015 76.5923 16.5444C76.5923 10.0873 82.2068 5.14246 90.2738 5.14246C92.7449 5.14246 95.1475 5.50642 97.4195 6.2061L97.6498 6.28768V10.5861L97.2047 10.3885C95.0479 9.45975 92.9067 9.01108 90.6192 9.01108C85.2039 9.01108 81.9578 11.7345 81.9578 16.2808C81.9578 20.8271 85.0203 23.469 89.9439 23.469C91.3444 23.469 92.7106 23.2525 93.6817 22.9199V16.1647H98.7857V16.149H98.7826ZM74.6316 21.9755C72.6242 22.9701 70.8285 23.4031 68.7868 23.4031C64.0624 23.4031 61.0156 20.5824 61.0156 16.2149C61.0156 11.8474 64.1278 8.94519 68.9362 8.94519C71.2735 8.94519 72.5744 9.54133 74.3702 10.3728L74.8152 10.5704V6.27199L74.6192 6.19041C73.007 5.57545 71.4571 5.07971 68.8242 5.07971C61.2023 5.07971 55.6687 9.81116 55.6687 16.3498C55.6687 22.8885 60.4927 27.2717 68.2795 27.2717C70.7164 27.2717 72.2321 26.8889 74.9958 25.5774L75.1763 25.4958L75.0767 21.7621L74.6316 21.9786V21.9755ZM46.0675 14.0908C43.9262 13.1621 42.0682 12.3651 42.0682 10.8873C42.0682 9.146 44.1752 8.94519 45.0809 8.94519C46.8922 8.94519 48.8031 9.39386 50.7452 10.2567L51.1902 10.4544V6.23747L50.9941 6.1559C49.4131 5.47505 47.2065 5.07658 44.919 5.07658C39.2734 5.07658 36.7027 8.24551 36.7027 11.2011C36.7027 14.9693 40.0608 16.4471 43.0237 17.7586C45.2801 18.7532 47.2221 19.616 47.2221 21.2288C47.2221 22.8415 45.2956 23.4031 43.4843 23.4031C41.2777 23.4031 38.8097 22.1261 37.5243 21.3605L37.0482 21.0781V25.2291L37.1976 25.3295C39.0089 26.4246 40.6397 27.256 43.6026 27.256C48.9867 27.256 52.5907 24.6989 52.5907 20.915C52.5907 16.9303 48.9836 15.3552 46.0706 14.0939M33.6372 0H32.6817V31.9843H33.6372V0Z" fill="#FF0000"/>
</g>
<defs>
<clipPath id="clip0_403_2070">
<rect width="98.7826" height="32" fill="white"/>
</clipPath>
</defs>
</svg>
