<svg xmlns="http://www.w3.org/2000/svg" viewBox="0 0 1631.84 579.96"><defs><style>.cls-1{fill:#fff;}.cls-2{fill:red;}</style></defs><g id="Layer_2" data-name="Layer 2"><g id="Layer_1-2" data-name="Layer 1"><polygon class="cls-1" points="0 144.99 0 434.97 250.86 579.96 501.72 434.97 501.72 144.99 250.86 0 0 144.99"/><path class="cls-2" d="M475.68,150.68,425.07,273.43,265.71,30.62ZM435,290.12,485.37,412.6V167.37ZM265.71,549.61l209.7-119.78-50.34-123Zm-239-120,209.7,119.79L77.28,306.81Zm-10-17L67.05,290.12,16.71,167.64Zm68.1-122.48L250.9,543.69,417.26,290.12,250.9,36.27ZM26.67,150.68,77,273.43,236.37,30.62Z"/><path class="cls-1" d="M167.45,277.46a62.34,62.34,0,0,0,4.85,4.31,12.83,12.83,0,0,0,0,4.58c-13.46,15.07-25.84,18-31.77,18,12.39-8.61,23.16-22.34,26.92-26.92m18,52.5c-2.42,0-9.69,4.57-8.61,7.26s3.49,3.5,2.69,8.89c-.54,2.42-1.89,7-6.19,5.11-5.39-1.88-4.58-16.15-3.5-22.34,1.61-10,3-23.69,1.07-36.88-7.8,7.54-15.07,11.85-20.72,13.73H150c1.07,8.34,1.07,17,1.61,21.8,1.35,6.73,0,34.19,20.19,36.08,7.81.53,15.08-3.24,17.77-12.93,2.69-7.8,1.61-20.72-4-20.72m56-6.46c-1.35,3-3.5,7.53-3.5,7.53a29.47,29.47,0,0,0,7.54,5.12s-.81-19.65-.54-22.08c0,0-2.69,7.54-3.5,9.43m107.14,19.92c-1.62,3.5-2.42,10-2.42,12.11a39.81,39.81,0,0,0,1.34,15.61c1.89,5.39,1.08,8.62,1.08,8.62,3.23-1.89,1.61-6.46,1.07-11.85-.26-5.38.81-17.23,3-22.88s1.07-9.69,1.07-9.69c-1.07,3.5-3.5,4.31-5.11,8.08M241.48,377.87c-1.61.27-2.42,3.23-3,5.66a32.17,32.17,0,0,0,7-1.35c-.81-1.62-2.42-4.58-4-4.31m-2.69-9.42c-3.5-2.15-12.11-11.31-21-15.07,0,0,1.08,11.57.27,15.88-1.08,5.92-1.88,9.69-.81,11.57,1.08-1.88,3-4.57,5.39-4.57a2.89,2.89,0,0,1,3,1.34,11.22,11.22,0,0,1,1.88,3c.81-1.88,2.69-4,4.85-4.3,2.42-.27,4,1.88,4.84,4,.81-2.15,2.16-4.3,4-4.57,3.23-.54,5.39,3,6.46,5.11h0c1.35-2.69-.81-7.27-.81-12.38-.26,0-5.11,2.15-8.07,0m-16.42,10.23c-1.08,0-2.69,2.15-3.5,4a5.72,5.72,0,0,0,3.23.81,13.55,13.55,0,0,1,3.23.26,7.73,7.73,0,0,0-1.62-4.57Zm10,0c-2.16.27-3.23,3-3.77,5.11a32.7,32.7,0,0,0,7.27,0c-.81-2.15-2.16-5.11-3.5-5.11m18.57-32.57c-.54.81,1.35,3.5,4,5.65,1.08-3,1.35-5.11.54-6.46-1.62-.27-4-.27-4.58.81m-3.77,7.27c-.8,1.34,1.08,4,3,5.92.81-1.08,1.35-2.16,2.43-3.5a12.05,12.05,0,0,1,1.34-1.89c-2.69-1.07-5.92-1.88-6.73-.53m-3.76,6.73-1.08.53c-.27.81.54,2.7,1.61,4.58,1.35-.27,3-1.88,4.85-3.77a8.81,8.81,0,0,0-5.38-1.34m96.36,18c-1.34.27-2.69,3-3.23,5.39,2.7-.27,5.12-.54,7-1.62-.8-1.88-2.15-4-3.77-3.77m25.85-69.72a29.77,29.77,0,0,1,3,12.38A59.48,59.48,0,0,1,366.65,334s-6.46-5.92-5.38-23.95c0,0,1.08-25.85-3.77-36.88,0,0-5.11,23.42-7,30.42-1.88,7.26,0,19.38.81,23.15,1.35,5.65-3,8.34-5.92,15.34-2.43,5.92-2.69,12.38-3,15.88a43.9,43.9,0,0,0,2.42,16.69c.81,2.42.81,4.85,0,5.65-1.08-1.88-3-4.84-5.92-4.57-2.16.27-3.5,2.42-4.31,4.31-.81-1.89-2.15-4-4.58-4-2.15,0-4,1.88-5.11,3.77a28.17,28.17,0,0,0-1.62-3c-1.07-1.08-1.88-1.62-3-1.62-2.42,0-4.57,3.23-5.65,4.85-.81-1.08-1.08-2.7-.54-4.85,2.16-10.5,6.19-28,2.16-36.88-4.31-8.88-21-24.23-22.35-42.26,0,0-3,2.15,0,11,0,0-20.19,2.42-45-5.12a39.82,39.82,0,0,1,3.23-9.69s-5.92,4.58-9.15,17.23c-1.08,4.57-7.27,16.69-8.62,20.19-1.61,3.5,7.81,8.61,11,10,2.42,1.07,5.65,1.61,8.07,3.23-1.88,0-3.76.54-4.57,2.15l-.27,1.35c0,1.61,1.08,2.69,1.88,4.3-1.88-.27-4.3-.27-5.38,1.62a3.89,3.89,0,0,0-.54,1.88,8,8,0,0,0,1.35,4,6.44,6.44,0,0,0-3.23,0q-2,.4-2.43,1.62c-1.07,1.61,0,4,1.08,5.92-1.88-.54-3.77-2.42-6.19-4-6.19-5.38-20.46-14.27-22.88-15.34-2.69-1.08-8.35-4.58-7.27-16.15,1.08-11.31,4.31-42,6.19-49.8,0,0-2.15,1.61-3.77,7l-8.34-12.65c3.23-2.15,5.92-6.46,7.54-8.88,1.88,2.42,5.38,8.08,5.38,8.08l1.35-1.89c.26-.27,4.57-5.11,5.92-9.15a82.64,82.64,0,0,0,3.5-14,39.56,39.56,0,0,1,1.61-6.19l1.35-3.5c3.23-7.27,10.5-21.8.54-32s-23.15-5.12-23.15-5.12,14.53.27,20.45,7.27a16.84,16.84,0,0,1,3.77,11.31c0,6.46-3,12.65-4.84,17.22l-1.62,4a26.59,26.59,0,0,0-1.34,6.46,76.71,76.71,0,0,1-3.5,13.46,26,26,0,0,1-4,6.46c-1.62-2.15-6.19-8.88-6.19-8.88l-1.08,2.69c-1.08,2.42-4.84,8.88-8.61,10.5-4.31,2.69-7.81,3.5-10.77,5.65-1.88,1.62-3.77,3-4.58,8.08a9.2,9.2,0,0,1-4.57,5.92,22,22,0,0,0-.54-4.31,13.64,13.64,0,0,1-.27-7.53l-8.61-7-1.08,1.34c0,.27-7.54,10.5-17.5,19.65l-.27.27c-.27-1.34-.27-2.15-.54-3.77,0,0-3.23,4.31-13.72,4.58,12.11-8.61,12.65-12.92,12.65-12.92a179.74,179.74,0,0,1,0-25.84c-.54-4.58-1.35-17.77,0-22.88,1.07-5.39,2.42-9.69,6.19-20.73,4-10.77,12.65-10.23,12.65-10.23s7.81-11.58,17-12.38c14.54-1.62,25.3,2.69,33.65,1.34,8.34-1.61,29.34-6.73,41.18-5.38,11.85,1.08,52.23,9.42,66.49,21.26,14.54,11.85,36.61,28.54,39.57,60,3.23,30.42,2.43,40.65,2.43,40.65M185,234.66c.81-1.88,4.85-5.92,4.85-5.92a7.09,7.09,0,0,0-7.54,1.35c-3.5,3.5-1.35,10.23-1.35,10.23s3.23-3.5,4-5.66m37.42-20.72c-4.58-8.35-14-5.39-14-5.39,5.38,1.35,10.5,4.58,11.31,7.81,1.61,4.57.27,13.73.27,13.73s6.73-7.81,2.42-16.15M330.58,378.41c-2.15,0-3.5,3-4.3,5.38h7.53c-.54-2.42-1.61-5.38-3.23-5.38m-9.69-.54c-1.08,0-3,2.16-4,3.77a17.8,17.8,0,0,0,6.73,1.89,7.33,7.33,0,0,0-1.61-5.12Z"/><path class="cls-2" d="M1631.84,292.54V444.63l-3.23,1.35c-40.38,17.49-95.56,28-146.71,28C1354.58,474,1269,403.71,1269,299c0-108.75,91.8-184.93,223.7-184.93A400.83,400.83,0,0,1,1609.5,131.3l3.77,1.34v69.72l-7.27-3.23c-35.26-15.07-70.26-22.34-107.68-22.34-88.56,0-141.59,44.14-141.59,117.9,0,71.88,50.07,116.56,130.56,116.56,22.88,0,45.22-3.5,61.1-8.88V292.81h83.45ZM1236.94,387c-32.84,16.16-62.18,23.15-95.56,23.15-77.26,0-127.06-45.76-127.06-116.55,0-71.34,50.88-117.91,129.48-117.91,38.23,0,59.49,9.69,88.83,23.15l7.27,3.23V132.37l-3.23-1.34c-26.38-10-51.68-18-94.75-18-124.64,0-215.08,76.72-215.08,182.78,0,109.29,78.87,177.13,206.19,177.13,39.84,0,64.61-6.2,109.83-27.46l3-1.35-1.61-60.56Zm-467-127.86c-35-15.07-65.41-28-65.41-52,0-28.27,34.45-31.5,49.26-31.5,29.61,0,60.83,7.27,92.6,21.27l7.27,3.23V131.83l-3.23-1.34c-25.85-11-61.92-17.5-99.33-17.5-92.34,0-134.33,51.42-134.33,99.33,0,61.11,54.91,85.06,103.37,106.33,36.88,16.15,68.64,30.15,68.64,56.26s-31.49,35.26-61.1,35.26c-36.08,0-76.45-20.72-97.45-33.11l-7.81-4.57v67.3l2.43,1.61c29.61,17.77,56.26,31.23,104.71,31.23,88,0,147-41.46,147-102.83,0-64.61-59-90.18-106.6-110.64M566.66,30.62H551.05V549.35h15.61Z"/></g></g></svg>